# xmcd
#
# Track frame offsets:
#	150
#	14993
#	30150
#	43706
#	56110
#	75635
#	94900
#	112160
#	128035
#	150799
#	167064
#	183471
#	206305
#	217331
#	229793
#	244422
#
# Disc length: 3473 seconds
#
# Revision: 2
# Processed by: cddbd v1.5.1PL0 Copyright (c) Steve Scherf et al.
# Submitted via: EasyCDDAExtractor 6.0.0.1
#
DISCID=dc0d8f10
DTITLE=Various Artist - Grace And Beauty
DYEAR=1999
DGENRE=
TTITLE0=Budapest Ragtim Band - Sunflower Slow Drag
TTITLE1=Budapest Ragtim Band - Grace and Beauty
TTITLE2=Budapest Ragtim Band - Pleasent Moments
TTITLE3=Budapest Ragtim Band - At The Darktown Strutters Ball
TTITLE4=Budapest Ragtim Band - Bill Bailey Won't You Please Come Home
TTITLE5=Budapest Ragtim Band - Alexander's Ragtime Band
TTITLE6=Budapest Ragtim Band - Ain't Misbehavin'
TTITLE7=Budapest Ragtim Band - Goofus
TTITLE8=Budapest Ragtim Band - G I Jive
TTITLE9=Budapest Ragtim Band - Minor Swing
TTITLE10=Budapest Ragtim Band - 12th Street Rag
TTITLE11=Budapest Ragtim Band - If I Only Had a Brain
TTITLE12=Budapest Ragtim Band - What a Wonderfol World
TTITLE13=Budapest Ragtime Band - Clink Clink Another Drink
TTITLE14=Budapest Ragtim Band - Guillaume Tell Overture
TTITLE15=Budapest Ragtim Band - Solace
EXTD=
EXTT0=
EXTT1=
EXTT2=
EXTT3=
EXTT4=
EXTT5=
EXTT6=
EXTT7=
EXTT8=
EXTT9=
EXTT10=
EXTT11=
EXTT12=
EXTT13=
EXTT14=
EXTT15=
PLAYORDER=
